<mxfile host="app.diagrams.net" agent="Mozilla/5.0 (Windows NT 10.0; Win64; x64) AppleWebKit/537.36 (KHTML, like Gecko) Chrome/133.0.0.0 Safari/537.36" version="26.0.4">
  <diagram name="Page-1" id="47_eghBY_WndI4eq-mP4">
    <mxGraphModel dx="1434" dy="780" grid="1" gridSize="10" guides="1" tooltips="1" connect="1" arrows="1" fold="1" page="1" pageScale="1" pageWidth="850" pageHeight="1100" math="0" shadow="0">
      <root>
        <mxCell id="0" />
        <mxCell id="1" parent="0" />
        <mxCell id="8dNdwriFlojF6mHtiqO2-9" style="edgeStyle=orthogonalEdgeStyle;rounded=0;orthogonalLoop=1;jettySize=auto;html=1;exitX=1;exitY=0.5;exitDx=0;exitDy=0;entryX=0;entryY=0.5;entryDx=0;entryDy=0;" edge="1" parent="1" source="6" target="_yjGgRkyF2pwwqZSoxdo-15">
          <mxGeometry relative="1" as="geometry" />
        </mxCell>
        <mxCell id="6" value="Input Data Sources" style="whiteSpace=wrap;strokeWidth=2;verticalAlign=top;align=left;fontSize=24;" parent="1" vertex="1">
          <mxGeometry x="70" y="237.5" width="230" height="192.5" as="geometry" />
        </mxCell>
        <mxCell id="7" value="NEWS&#xa;API" style="ellipse;aspect=fixed;strokeWidth=2;whiteSpace=wrap;" parent="1" vertex="1">
          <mxGeometry x="80" y="270" width="80" height="80" as="geometry" />
        </mxCell>
        <mxCell id="8" value="Other Data Sources" style="ellipse;aspect=fixed;strokeWidth=2;whiteSpace=wrap;" parent="1" vertex="1">
          <mxGeometry x="130" y="340" width="90" height="90" as="geometry" />
        </mxCell>
        <mxCell id="DbxxCurgjsCYaaTTjRr4-35" value="Data Ingestion and Processing" style="text;html=1;align=center;verticalAlign=middle;whiteSpace=wrap;rounded=0;fontSize=42;fontStyle=1;fontColor=#336600;" parent="1" vertex="1">
          <mxGeometry width="660" height="100" as="geometry" />
        </mxCell>
        <mxCell id="DbxxCurgjsCYaaTTjRr4-41" value="" style="group" parent="1" vertex="1" connectable="0">
          <mxGeometry x="70" y="80" width="213.75" height="114" as="geometry" />
        </mxCell>
        <mxCell id="DbxxCurgjsCYaaTTjRr4-37" value="Airflow Scheduler" style="whiteSpace=wrap;strokeWidth=2;fontSize=18;" parent="DbxxCurgjsCYaaTTjRr4-41" vertex="1">
          <mxGeometry width="190" height="90" as="geometry" />
        </mxCell>
        <mxCell id="DbxxCurgjsCYaaTTjRr4-40" value="" style="shape=image;verticalLabelPosition=bottom;labelBackgroundColor=default;verticalAlign=top;aspect=fixed;imageAspect=0;image=https://static-00.iconduck.com/assets.00/airflow-icon-2048x2048-ptyvisqh.png;" parent="DbxxCurgjsCYaaTTjRr4-41" vertex="1">
          <mxGeometry width="40" height="40" as="geometry" />
        </mxCell>
        <mxCell id="DbxxCurgjsCYaaTTjRr4-42" style="edgeStyle=orthogonalEdgeStyle;rounded=0;orthogonalLoop=1;jettySize=auto;html=1;dashed=1;dashPattern=8 8;entryX=0.5;entryY=0;entryDx=0;entryDy=0;" parent="1" source="DbxxCurgjsCYaaTTjRr4-37" target="6" edge="1">
          <mxGeometry relative="1" as="geometry">
            <mxPoint x="241" y="230" as="targetPoint" />
          </mxGeometry>
        </mxCell>
        <mxCell id="DbxxCurgjsCYaaTTjRr4-43" value="Triggers data ingestion at a fixed timing with preset parameters" style="text;html=1;align=center;verticalAlign=middle;whiteSpace=wrap;rounded=0;fontSize=14;" parent="1" vertex="1">
          <mxGeometry x="230" y="190" width="180" height="30" as="geometry" />
        </mxCell>
        <mxCell id="AvMgfMCW1MKWy36nXLjG-41" value="" style="group" parent="1" vertex="1" connectable="0">
          <mxGeometry x="490" y="684" width="160" height="162" as="geometry" />
        </mxCell>
        <mxCell id="AvMgfMCW1MKWy36nXLjG-42" value="Data StorageÂ " style="whiteSpace=wrap;strokeWidth=2;align=left;verticalAlign=top;fontSize=24;" parent="AvMgfMCW1MKWy36nXLjG-41" vertex="1">
          <mxGeometry width="160" height="162" as="geometry" />
        </mxCell>
        <mxCell id="AvMgfMCW1MKWy36nXLjG-53" value="" style="group" parent="AvMgfMCW1MKWy36nXLjG-41" vertex="1" connectable="0">
          <mxGeometry x="50" y="50" width="60" height="80" as="geometry" />
        </mxCell>
        <mxCell id="AvMgfMCW1MKWy36nXLjG-54" value="" style="shape=cylinder3;whiteSpace=wrap;html=1;boundedLbl=1;backgroundOutline=1;size=15;" parent="AvMgfMCW1MKWy36nXLjG-53" vertex="1">
          <mxGeometry width="60" height="80" as="geometry" />
        </mxCell>
        <mxCell id="AvMgfMCW1MKWy36nXLjG-55" value="" style="dashed=0;outlineConnect=0;html=1;align=center;labelPosition=center;verticalLabelPosition=bottom;verticalAlign=top;shape=mxgraph.weblogos.mongodb" parent="AvMgfMCW1MKWy36nXLjG-53" vertex="1">
          <mxGeometry x="20" y="35" width="20" height="41" as="geometry" />
        </mxCell>
        <mxCell id="AvMgfMCW1MKWy36nXLjG-49" value="I/O Operations" style="text;html=1;align=center;verticalAlign=middle;whiteSpace=wrap;rounded=0;fontSize=42;fontStyle=1;fontColor=#000099;" parent="1" vertex="1">
          <mxGeometry y="610" width="385" height="60" as="geometry" />
        </mxCell>
        <mxCell id="AvMgfMCW1MKWy36nXLjG-69" value="Key: Collection Name&lt;div&gt;Value: List of records to upsert&lt;/div&gt;" style="text;html=1;align=center;verticalAlign=middle;whiteSpace=wrap;rounded=0;fontSize=17;" parent="1" vertex="1">
          <mxGeometry x="280" y="714" width="160" height="90" as="geometry" />
        </mxCell>
        <mxCell id="AvMgfMCW1MKWy36nXLjG-70" value="" style="endArrow=none;html=1;rounded=0;" parent="1" edge="1">
          <mxGeometry width="50" height="50" relative="1" as="geometry">
            <mxPoint y="618" as="sourcePoint" />
            <mxPoint x="840" y="618" as="targetPoint" />
          </mxGeometry>
        </mxCell>
        <mxCell id="_yjGgRkyF2pwwqZSoxdo-8" value="&lt;font style=&quot;font-size: 19px;&quot;&gt;In mem storage&lt;/font&gt;" style="shape=cylinder3;whiteSpace=wrap;html=1;boundedLbl=1;backgroundOutline=1;size=15;" parent="1" vertex="1">
          <mxGeometry x="470" y="470" width="90" height="120" as="geometry" />
        </mxCell>
        <mxCell id="_yjGgRkyF2pwwqZSoxdo-10" style="edgeStyle=orthogonalEdgeStyle;rounded=0;orthogonalLoop=1;jettySize=auto;html=1;entryX=0;entryY=0;entryDx=0;entryDy=52.5;entryPerimeter=0;exitX=0.5;exitY=1;exitDx=0;exitDy=0;" parent="1" source="6" target="_yjGgRkyF2pwwqZSoxdo-8" edge="1">
          <mxGeometry relative="1" as="geometry" />
        </mxCell>
        <mxCell id="_yjGgRkyF2pwwqZSoxdo-18" value="" style="edgeStyle=orthogonalEdgeStyle;rounded=0;orthogonalLoop=1;jettySize=auto;html=1;" parent="1" source="_yjGgRkyF2pwwqZSoxdo-15" target="_yjGgRkyF2pwwqZSoxdo-17" edge="1">
          <mxGeometry relative="1" as="geometry" />
        </mxCell>
        <mxCell id="8dNdwriFlojF6mHtiqO2-8" value="" style="edgeStyle=orthogonalEdgeStyle;rounded=0;orthogonalLoop=1;jettySize=auto;html=1;" edge="1" parent="1" source="_yjGgRkyF2pwwqZSoxdo-15" target="_yjGgRkyF2pwwqZSoxdo-8">
          <mxGeometry relative="1" as="geometry" />
        </mxCell>
        <mxCell id="8dNdwriFlojF6mHtiqO2-11" value="" style="edgeStyle=orthogonalEdgeStyle;rounded=0;orthogonalLoop=1;jettySize=auto;html=1;" edge="1" parent="1" source="_yjGgRkyF2pwwqZSoxdo-15" target="8dNdwriFlojF6mHtiqO2-10">
          <mxGeometry relative="1" as="geometry" />
        </mxCell>
        <mxCell id="8dNdwriFlojF6mHtiqO2-12" style="edgeStyle=orthogonalEdgeStyle;rounded=0;orthogonalLoop=1;jettySize=auto;html=1;exitX=0.75;exitY=0;exitDx=0;exitDy=0;" edge="1" parent="1" source="_yjGgRkyF2pwwqZSoxdo-15">
          <mxGeometry relative="1" as="geometry">
            <mxPoint x="560" y="220" as="targetPoint" />
          </mxGeometry>
        </mxCell>
        <mxCell id="_yjGgRkyF2pwwqZSoxdo-15" value="Processing Services" style="rounded=1;whiteSpace=wrap;html=1;" parent="1" vertex="1">
          <mxGeometry x="400" y="303.76" width="120" height="60" as="geometry" />
        </mxCell>
        <mxCell id="_yjGgRkyF2pwwqZSoxdo-17" value="&lt;font style=&quot;font-size: 19px; color: rgb(255, 255, 255);&quot;&gt;Termination&lt;/font&gt;" style="ellipse;whiteSpace=wrap;html=1;strokeColor=light-dark(#f31212, #ededed);fillColor=light-dark(#df1111, #ededed);" parent="1" vertex="1">
          <mxGeometry x="690" y="307.88" width="120" height="51.75" as="geometry" />
        </mxCell>
        <mxCell id="_yjGgRkyF2pwwqZSoxdo-21" value="&lt;font style=&quot;font-size: 19px;&quot;&gt;In mem storage&lt;/font&gt;" style="shape=cylinder3;whiteSpace=wrap;html=1;boundedLbl=1;backgroundOutline=1;size=15;" parent="1" vertex="1">
          <mxGeometry x="130" y="694" width="90" height="120" as="geometry" />
        </mxCell>
        <mxCell id="_yjGgRkyF2pwwqZSoxdo-22" style="edgeStyle=orthogonalEdgeStyle;rounded=0;orthogonalLoop=1;jettySize=auto;html=1;entryX=0.041;entryY=0.428;entryDx=0;entryDy=0;entryPerimeter=0;" parent="1" source="_yjGgRkyF2pwwqZSoxdo-21" target="AvMgfMCW1MKWy36nXLjG-42" edge="1">
          <mxGeometry relative="1" as="geometry" />
        </mxCell>
        <mxCell id="8dNdwriFlojF6mHtiqO2-10" value="&lt;b&gt;&lt;font style=&quot;font-size: 16px;&quot;&gt;News&lt;/font&gt;&lt;/b&gt;&amp;nbsp;&lt;div&gt;NER &amp;amp; Similarity mapping&lt;/div&gt;" style="ellipse;whiteSpace=wrap;html=1;rounded=1;" vertex="1" parent="1">
          <mxGeometry x="415" y="130" width="90" height="90" as="geometry" />
        </mxCell>
        <mxCell id="8dNdwriFlojF6mHtiqO2-13" value="&lt;b&gt;&lt;font style=&quot;font-size: 17px;&quot;&gt;10K&lt;/font&gt;&lt;/b&gt;&lt;br&gt;Item Extraction" style="ellipse;whiteSpace=wrap;html=1;aspect=fixed;" vertex="1" parent="1">
          <mxGeometry x="520" y="130" width="90" height="90" as="geometry" />
        </mxCell>
        <mxCell id="8dNdwriFlojF6mHtiqO2-16" value="10K Web Crawler" style="ellipse;aspect=fixed;strokeWidth=2;whiteSpace=wrap;" vertex="1" parent="1">
          <mxGeometry x="200" y="270" width="80" height="80" as="geometry" />
        </mxCell>
      </root>
    </mxGraphModel>
  </diagram>
</mxfile>
